PathFileType	4	(X/Y/Z)	C:/Users/opensim2020/Desktop/walking_exp_matlab/subject02_walking15_straight_02.trc																																																																																																																												
DataRate	CameraRate	NumFrames	NumMarkers	Units	OrigDataRate	OrigDataStartFrame	OrigNumFrames																																																																																																																								
100	100	4	42	mm	100	870	142																																																																																																																								
Frame#	Time	LFHD			RFHD			LBHD			RBHD			C7			T10			CLAV			STRN			RBAK			LSHO			LUPA			LELB			LFRM			LWRA			LWRB			LFIN			RSHO			RUPA			RELB			RFRM			RWRA			RWRB			RFIN			LASI			RASI			LPSI			RPSI			LTHI			LKNE			LTIB			LANK			LHEE			LTOE			RTHI			RKNE			RTIB			RANK			RHEE			RTOE			*39			*40			*41		
		X1	Y1	Z1	X2	Y2	Z2	X3	Y3	Z3	X4	Y4	Z4	X5	Y5	Z5	X6	Y6	Z6	X7	Y7	Z7	X8	Y8	Z8	X9	Y9	Z9	X10	Y10	Z10	X11	Y11	Z11	X12	Y12	Z12	X13	Y13	Z13	X14	Y14	Z14	X15	Y15	Z15	X16	Y16	Z16	X17	Y17	Z17	X18	Y18	Z18	X19	Y19	Z19	X20	Y20	Z20	X21	Y21	Z21	X22	Y22	Z22	X23	Y23	Z23	X24	Y24	Z24	X25	Y25	Z25	X26	Y26	Z26	X27	Y27	Z27	X28	Y28	Z28	X29	Y29	Z29	X30	Y30	Z30	X31	Y31	Z31	X32	Y32	Z32	X33	Y33	Z33	X34	Y34	Z34	X35	Y35	Z35	X36	Y36	Z36	X37	Y37	Z37	X38	Y38	Z38	X39	Y39	Z39	X40	Y40	Z40	X41	Y41	Z41	X42	Y42	Z42
																																																																																																																															
1	0	-970.32678	1710.08337	913.80017	-988.44104	1697.39575	1057.09546	-1096.06165	1629.75989	892.0968	-1125.88123	1614.81421	1032.2655	-1151.17737	1492.07092	950.46985	-1207.80627	1219.59766	958.47943	-1013.25824	1423.51331	969.52032	-964.25836	1250.78308	986.27014	-1223.06482	1318.00549	998.58759	-1043.19775	1465.88257	790.09381	-1003.93671	1270.65015	712.55988	-961.78699	1130.71265	706.82452	-874.7124	1042.2135	761.42688	-792.47845	1005.92596	867.09833	-795.93323	970.17432	823.57367	-745.52875	947.26294	861.24933	-1122.64307	1459.86572	1145.70483	-1218.82764	1290.11194	1209.9574	-1248.66187	1148.60327	1234.00757	-1259.43689	1030.17749	1262.02234	-1243.28076	893.53217	1259.89929	-1296.69458	905.96332	1275.06458	-1284.01367	834.62671	1286.96143	-995.26709	939.46301	848.44684	-988.38831	953.03589	1103.33228	-1198.06567	999.84729	931.30115	-1204.63635	1007.63947	1043.85889	-1137.09082	641.49677	810.64221	-1224.31165	460.85889	842.59515	-1366.05835	327.061	833.26819	-1480.33228	131.82263	863.88495	-1529.97668	127.69789	908.1283	-1353.53796	39.0113	886.47131	-985.40851	675.81647	1211.07068	-929.66595	472.68982	1192.45178	-924.36646	285.68842	1217.09192	-888.97699	95.88819	1213.09265	-915.35376	40.42466	1165.02576	-726.59613	51.48836	1216.0614	-1085.21021	1774.33203	986.96881	-2846.22241	1034.23608	3356.69775	NaN	NaN	NaN
2	0.01	-956.97614	1710.18677	917.87646	-974.08838	1697.86438	1061.15051	-1082.99915	1629.76868	897.08057	-1111.76465	1615.26416	1037.50989	-1138.36438	1491.66113	956.38574	-1193.29761	1219.34143	964.83252	-999.67133	1423.99023	974.0448	-949.65332	1251.64722	990.67841	-1208.56323	1317.49817	1004.99902	-1031.87219	1466.17822	794.87311	-993.28351	1270.85522	716.96063	-951.41693	1130.65027	710.50409	-864.11115	1042.60217	763.79584	-779.96405	1006.44586	868.19861	-784.52844	970.328	825.05933	-732.88629	948.117	862.10284	-1107.26917	1459.76245	1151.41296	-1202.27234	1289.6095	1216.69702	-1231.23315	1147.83508	1240.71997	-1240.55676	1029.13684	1268.48718	-1223.08875	892.66852	1265.88794	-1276.48926	904.62933	1281.46057	-1263.09534	833.55145	1293.422	-978.64099	939.5553	853.86249	-972.39502	954.1059	1108.19238	-1182.24756	999.50745	936.75366	-1188.06482	1007.54053	1049.23596	-1119.76062	641.04242	814.97803	-1204.58337	461.03418	844.66888	-1351.77588	332.80701	835.51776	-1472.68396	141.24622	864.19293	-1520.55383	139.79454	909.43823	-1352.92188	39.14526	886.18372	-970.15948	677.03796	1214.39221	-913.92755	473.72385	1196.76721	-912.02728	287.41275	1222.01843	-880.29321	95.94778	1214.99316	-912.82208	42.08785	1167.64319	-720.91882	47.33345	1214.25159	-1071.354	1774.64954	991.19592	-2845.9917	1034.2594	3356.84473	NaN	NaN	NaN
3	0.02	-943.823	1711.05127	921.54852	-959.836	1698.95349	1065.19226	-1069.83899	1630.44861	902.04602	-1097.68347	1616.25879	1042.7323	-1125.42908	1491.88928	962.30798	-1178.67126	1219.48413	970.68182	-986.09863	1425.03015	978.54059	-934.95294	1252.90442	995.16913	-1194.03174	1317.58167	1011.35785	-1020.79169	1467.08752	799.32672	-983.29395	1271.42786	721.22852	-941.95856	1131.0769	714.00604	-853.70111	1042.51404	765.98914	-767.90784	1006.6795	868.51935	-773.55414	970.07263	825.84454	-721.21014	948.17126	861.87164	-1092.05798	1460.24768	1156.9856	-1185.36572	1289.34009	1223.4884	-1213.30579	1147.28467	1247.55396	-1221.01929	1028.33411	1274.9314	-1202.17432	892.04742	1271.62793	-1255.37451	903.39197	1287.85083	-1241.02991	832.67865	1299.84229	-962.13275	939.95276	859.93762	-956.58203	955.73486	1113.18774	-1166.26868	999.7926	941.71448	-1171.50256	1008.50848	1054.51721	-1101.00806	640.79089	819.40039	-1183.04089	461.08121	846.72791	-1335.50562	339.21167	838.57416	-1462.70325	151.58841	864.85394	-1508.37415	152.76866	911.4317	-1352.59021	39.06132	885.91656	-957.29089	677.7608	1219.47485	-896.07599	476.23596	1198.8772	-897.89789	290.45526	1225.3042	-876.96808	96.53922	1214.1925	-911.65741	42.62908	1166.52148	-720.70746	45.22666	1219.69775	-1057.64172	1775.74011	996.47778	-2845.48779	1034.17798	3360.50244	NaN	NaN	NaN
4	0.03	-930.44025	1712.25281	925.39349	-945.60876	1700.48096	1069.07739	-1056.63269	1631.61963	907.02563	-1083.36047	1617.52197	1047.79626	-1112.1897	1492.72473	968.14398	-1163.97705	1220.0719	975.93451	-972.6026	1426.54602	982.80365	-920.45428	1254.88452	999.43146	-1179.51013	1318.29578	1017.74902	-1009.33264	1468.35059	803.74976	-973.30133	1272.25562	725.22614	-932.87256	1131.55688	717.61932	-844.17584	1042.23438	767.89063	-756.63513	1006.11151	868.43408	-763.33356	969.36676	826.19501	-710.31042	947.47137	860.85236	-1076.68359	1461.03088	1162.5929	-1167.93237	1289.29309	1230.31055	-1194.74683	1146.94702	1254.34497	-1200.80286	1027.87207	1281.41077	-1180.16699	891.90375	1277.56628	-1233.48181	902.47705	1294.27515	-1218.05518	832.15649	1306.19336	-946.0556	940.72211	866.32599	-940.98712	957.69293	1118.3158	-1150.21313	1000.64624	946.1424	-1155.99866	1010.63727	1059.55493	-1081.62585	640.32397	823.5144	-1159.36914	460.67282	849.21875	-1316.31128	345.63861	842.31	-1449.54272	162.23293	865.87036	-1492.76013	165.98692	913.9538	-1351.80042	39.2382	886.1947	-946.06036	677.0509	1223.573	-877.94562	478.62686	1199.67944	-884.86975	292.89539	1227.17798	-877.43365	97.83378	1212.28748	-911.16541	43.04563	1166.45618	-719.41937	44.66748	1217.10889	-1043.93835	1776.90894	1000.96356	-2846.00586	1034.4502	3357.47144	NaN	NaN	NaN
